<svg id="Layer_4" data-name="Layer 4" xmlns="http://www.w3.org/2000/svg" xmlns:xlink="http://www.w3.org/1999/xlink" viewBox="0 0 36.16 651.57"><defs><style>.cls-1,.cls-2,.cls-3,.cls-4,.cls-5,.cls-6,.cls-7{stroke:#000;stroke-miterlimit:10;}.cls-1{fill:url(#linear-gradient);}.cls-2{fill:url(#linear-gradient-2);}.cls-3{fill:url(#linear-gradient-3);}.cls-4{fill:url(#linear-gradient-4);}.cls-5{fill:url(#linear-gradient-5);}.cls-6{fill:url(#White_Black);}.cls-7{fill:url(#White_Black-2);}</style><linearGradient id="linear-gradient" x1="298.17" y1="397.17" x2="324.19" y2="397.17" gradientUnits="userSpaceOnUse"><stop offset="0" stop-color="#fff"/><stop offset="1"/></linearGradient><linearGradient id="linear-gradient-2" x1="18.08" y1="505.5" x2="18.08" y2="572.17" gradientUnits="userSpaceOnUse"><stop offset="0" stop-color="#fff"/><stop offset="0.75"/><stop offset="1" stop-color="#fff"/></linearGradient><linearGradient id="linear-gradient-3" x1="18.08" y1="543.79" x2="18.08" y2="536.04" gradientUnits="userSpaceOnUse"><stop offset="0" stop-color="#fff"/><stop offset="0.05" stop-color="#eee"/><stop offset="0.32" stop-color="#9b9b9b"/><stop offset="0.56" stop-color="#585858"/><stop offset="0.76" stop-color="#282828"/><stop offset="0.91" stop-color="#0b0b0b"/><stop offset="1"/></linearGradient><linearGradient id="linear-gradient-4" x1="18.08" y1="520.29" x2="18.08" y2="526.38" gradientUnits="userSpaceOnUse"><stop offset="0" stop-color="#fff"/><stop offset="0.14" stop-color="#c1c1c1"/><stop offset="0.3" stop-color="#7d7d7d"/><stop offset="0.44" stop-color="#474747"/><stop offset="0.57" stop-color="#202020"/><stop offset="0.67" stop-color="#090909"/><stop offset="0.73"/><stop offset="0.76" stop-color="#050505"/><stop offset="0.79" stop-color="#121212"/><stop offset="0.83" stop-color="#282828"/><stop offset="0.87" stop-color="#474747"/><stop offset="0.9" stop-color="#707070"/><stop offset="0.94" stop-color="#a1a1a1"/><stop offset="0.98" stop-color="#dadada"/><stop offset="1" stop-color="#fff"/></linearGradient><linearGradient id="linear-gradient-5" x1="308.51" y1="653.75" x2="308.51" y2="681.54" gradientUnits="userSpaceOnUse"><stop offset="0.19"/><stop offset="0.26" stop-color="#040404"/><stop offset="0.33" stop-color="#0f0f0f"/><stop offset="0.39" stop-color="#222"/><stop offset="0.46" stop-color="#3c3c3c"/><stop offset="0.49" stop-color="#4d4d4d"/><stop offset="0.52" stop-color="#3a3a3a"/><stop offset="0.56" stop-color="#212121"/><stop offset="0.61" stop-color="#0e0e0e"/><stop offset="0.66" stop-color="#040404"/><stop offset="0.71"/></linearGradient><linearGradient id="White_Black" x1="6.04" y1="550.84" x2="30.12" y2="550.84" xlink:href="#linear-gradient"/><linearGradient id="White_Black-2" x1="279.34" y1="724.97" x2="320.09" y2="746.47" xlink:href="#linear-gradient"/></defs><title>pen2</title><path class="cls-1" d="M319.42,658H298.26a1.74,1.74,0,0,1-1.46-1.92c0-1.06,10.64-519.75,11.44-519.75,0,0,12.64,518.69,12.64,519.75A1.74,1.74,0,0,1,319.42,658Z" transform="translate(-290.76 -135.83)"/><rect class="cls-2" x="0.5" y="560.51" width="35.16" height="5.24" rx="1.92" ry="1.92"/><rect class="cls-3" x="2.28" y="536.55" width="31.59" height="5.24" rx="1.92" ry="1.92"/><rect class="cls-4" x="2.28" y="521.42" width="31.59" height="3.83" rx="1.92" ry="1.92"/><path class="cls-5" d="M322.38,671.42H294.63c-1.05-1-1.92-1.86-1.92-2.92V665c0-1.05.86-1.92,1.92-2.92h27.76c1.05,1,1.92,1.86,1.92,2.92v3.51C324.3,669.56,323.44,670.42,322.38,671.42Z" transform="translate(-290.76 -135.83)"/><rect class="cls-6" x="6.04" y="541.79" width="24.08" height="18.1"/><path class="cls-7" d="M309.13,785.5c0.4-1.26,1.22-12.43,4.38-24.5,4.47-17.1,11-25.9,11.83-40.9,0.42-9.08-.44-17.33-4.08-17.6-5.12-.37-12.41-0.38-12.41-0.38-2.9.21-1.84,0-12,.28-4,.11-5.15,6.23-4.63,15.81,0.61,11.35,7.57,26.88,12.83,45.23C307,770.55,307.25,777.37,309.13,785.5Z" transform="translate(-290.76 -135.83)"/></svg>